<?xml version="1.0" encoding="utf-8"?>
<!-- Generator: Adobe Illustrator 28.0.0, SVG Export Plug-In . SVG Version: 6.00 Build 0)  -->
<svg version="1.1" baseProfile="tiny" id="Слой_1"
	 xmlns="http://www.w3.org/2000/svg" xmlns:xlink="http://www.w3.org/1999/xlink" x="0px" y="0px" width="1080px" height="1080px"
	 viewBox="0 0 1080 1080" overflow="visible" xml:space="preserve">
<g>
	<g>
		<path fill="#FFFFFF" d="M851.65436,994.29163H641.23035c-20.5517,0-37.92279-14.8252-40.54614-34.62726L589.32098,874.159
			h-8.15546c-9.09332,6.62701-20.38861,10.5611-32.62177,10.5611s-23.52844-3.93408-32.62177-10.5611h-9.51468l-10.35739,85.08295
			c-2.43301,19.98688-19.88571,35.04968-40.61414,35.04968H245.43318c-11.25455,0-21.44885,4.43567-28.82953,11.604
			c-7.38066,7.16833-11.94768,17.0694-11.94768,28.00024c0,21.87463,18.25458,39.60413,40.77721,39.60413h606.22119
			c22.52264,0,40.77722-17.72949,40.77722-39.60413C892.43158,1012.02112,874.177,994.29163,851.65436,994.29163z
			 M822.43066,1051.05762h-547.7738c-4.68939,0-8.94382-1.84827-12.01572-4.83179
			c-3.07181-2.98352-4.97476-7.11548-4.97476-11.66992c0-9.10901,7.61169-16.50177,16.99048-16.50177h547.7738
			c4.68939,0,8.94385,1.84814,12.01575,4.83167c3.07184,2.98358,4.97479,7.11554,4.97479,11.6701
			C839.4212,1043.66479,831.80951,1051.05762,822.43066,1051.05762z"/>
		<ellipse fill="#FFFFFF" cx="549.90302" cy="790.99023" rx="54.36961" ry="52.80556"/>
		<path fill="#FFFFFF" d="M916.76202,27.94979c-51.65118,29.04306-42.68018,67.03662-39.41797,76.56807
			c2.71844,7.92083,25.82556,51.48542,65.24353,34.32362c0,0-55.72888-35.64376-8.15546-62.04654
			c50.21033-27.86812,111.45764,36.9639,38.05872,130.69377c-44.39282,56.6868-92.76813,92.11926-124.05786,111.27451
			c-1.54956,0.95053-3.57483-0.1452-3.57483-1.92743V64.016c0-14.812-12.36908-26.82524-27.61975-26.82524H279.84915
			c-15.25073,0-27.61977,12.01323-27.61977,26.82524v247.34125c0,1.80859-2.06609,2.89111-3.61555,1.90103
			c-31.2354-19.93417-76.02238-54.31055-117.35684-107.08969c-73.39897-93.72989-12.15161-158.5619,38.05873-130.69379
			c47.57341,26.40278-8.15544,62.04653-8.15544,62.04653c39.41797,17.16182,62.52505-26.40278,65.24353-34.32362
			c3.27574-9.53144,12.23317-47.52501-39.41797-76.56807c-39.1597-22.01991-175.342-15.84167-125.05011,145.2153
			c21.39443,68.50204,75.92715,139.60472,126.1783,194.4565c38.00432,41.47873,71.57756,86.71994,98.42256,135.74991
			c38.37134,70.08615,105.81689,122.95773,186.61017,143.55191c16.43317,4.18481,28.48962,17.78223,30.48773,34.16522
			l2.77283,22.7724h3.33017c9.85449-9.78229,23.59637-15.84167,38.80627-15.84167s28.95178,6.05939,38.80627,15.84167h1.97095
			l3.04468-22.90448c2.16125-16.23767,14.2041-29.66345,30.52856-33.7691c78.56409-19.73608,144.63672-69.96735,183.75568-136.91165
			c26.81781-45.90125,59.15411-88.56815,95.96234-127.38019c53.51331-56.40955,115.94318-133.94136,139.19989-208.41037
			C1092.104,12.10812,955.92169,5.92988,916.76202,27.94979z M707.57489,80.21405c0-4.80524,4.00977-8.69967,8.9574-8.69967h73.1543
			c4.94763,0,8.9574,3.89442,8.9574,8.69967v15.60406c0,4.80532-4.00977,8.69975-8.9574,8.69975h-73.1543
			c-4.94763,0-8.9574-3.89443-8.9574-8.69975V80.21405z M568.48383,80.21405c0-4.80524,3.99615-8.69967,8.94379-8.69967h73.16797
			c4.94757,0,8.95734,3.89442,8.95734,8.69967v15.60406c0,4.80532-4.00977,8.69975-8.95734,8.69975h-73.16797
			c-4.94763,0-8.94379-3.89443-8.94379-8.69975V80.21405z M429.37918,80.21405c0-4.80524,4.0098-8.69967,8.95737-8.69967h73.16791
			c4.94769,0,8.94385,3.89442,8.94385,8.69967v15.60406c0,4.80532-3.99615,8.69975-8.94385,8.69975h-73.16791
			c-4.94757,0-8.95737-3.89443-8.95737-8.69975V80.21405z M290.28812,80.21405c0-4.80524,4.00977-8.69967,8.95743-8.69967h73.15424
			c4.94766,0,8.95743,3.89442,8.95743,8.69967v15.60406c0,4.80532-4.00977,8.69975-8.95743,8.69975h-73.15424
			c-4.94766,0-8.95743-3.89443-8.95743-8.69975V80.21405z M640.42841,501.04807l-6.03503-101.98077
			c-1.76703-32.39627-3.90106-71.32715-3.54761-100.2778h-1.06018c-8.15546,27.22128-18.09149,56.17191-30.16156,88.21173
			l-42.20441,112.67383h-23.41974l-38.67041-110.6012c-11.34961-32.73944-20.93225-62.71985-27.6741-90.28436h-0.70685
			c-0.70673,28.95065-2.48734,67.88153-4.60776,102.68048l-6.38843,99.57809h-29.44119l16.66431-232.22574h39.37723
			l40.80432,112.31747c9.93616,28.60739,18.09155,54.09927,24.12653,78.21823h1.06024
			c6.03503-23.43246,14.54388-48.92435,25.18677-78.21823l42.57135-112.31747h39.3772l14.89734,232.22574H640.42841z
			 M804.63818,144.34644H285.65314c-2.47382,0-4.71661-0.9769-6.33411-2.54787s-2.62332-3.74922-2.62332-6.13867
			c0-4.80525,4.00977-8.69967,8.95743-8.69967h518.98505c2.47382,0,4.71661,0.97688,6.33411,2.54786
			c1.61749,1.57097,2.62335,3.74915,2.62335,6.15181C813.59564,140.45201,809.58588,144.34644,804.63818,144.34644z"/>
	</g>
	<g>
		<path fill="none" stroke="#000000" stroke-width="5" stroke-miterlimit="10" d="M829.90649,982.4104H619.48254
			c-20.55176,0-37.92285-14.8252-40.5462-34.62732l-11.36322-85.50537h-8.15546
			c-9.09332,6.62708-20.38855,10.56116-32.62177,10.56116c-12.23315,0-23.52841-3.93408-32.62173-10.56116h-9.51468
			l-10.35742,85.08301c-2.43301,19.98688-19.88568,35.04968-40.61411,35.04968H223.68533
			c-11.25455,0-21.44885,4.43567-28.82951,11.604c-7.38068,7.16833-11.94769,17.0694-11.94769,28.00018
			c0,21.87469,18.25458,39.60419,40.77721,39.60419h606.22119c22.52264,0,40.77722-17.72949,40.77722-39.60419
			C870.68372,1000.13983,852.42914,982.4104,829.90649,982.4104z M800.68286,1039.17639H252.909
			c-4.68939,0-8.94382-1.84827-12.01572-4.83179c-3.07181-2.98352-4.97479-7.11548-4.97479-11.66998
			c0-9.10895,7.61172-16.50171,16.99051-16.50171h547.77386c4.68939,0,8.94379,1.84814,12.01569,4.83167
			c3.07184,2.98352,4.97479,7.11554,4.97479,11.67004C817.67334,1031.78357,810.06165,1039.17639,800.68286,1039.17639z"/>
		
			<ellipse fill="none" stroke="#000000" stroke-width="5" stroke-miterlimit="10" cx="528.15515" cy="779.10895" rx="54.36961" ry="52.80556"/>
		<path fill="none" stroke="#000000" stroke-width="5" stroke-miterlimit="10" d="M895.01416,16.06853
			c-51.65112,29.04306-42.68018,67.03662-39.41797,76.56807c2.71851,7.92084,25.82556,51.48544,65.24353,34.32362
			c0,0-55.72888-35.64376-8.15546-62.04655c50.21033-27.86811,111.4577,36.9639,38.05872,130.69379
			c-44.39282,56.68677-92.76813,92.11925-124.05786,111.27449c-1.54956,0.95053-3.57483-0.1452-3.57483-1.92743V52.13475
			c0-14.812-12.36902-26.82524-27.61975-26.82524H258.10132c-15.25073,0-27.61978,12.01323-27.61978,26.82524v247.34126
			c0,1.80856-2.06607,2.89108-3.61554,1.901c-31.2354-19.93417-76.02238-54.31056-117.35685-107.08969
			C36.11017,100.55744,97.35754,35.72543,147.56787,63.59354c47.57341,26.40279-8.15544,62.04654-8.15544,62.04654
			c39.41797,17.16181,62.52505-26.40278,65.24355-34.32362c3.27573-9.53145,12.23315-47.52501-39.41798-76.56807
			C126.07829-7.27152-10.104-1.09327,40.18789,159.9637c21.39443,68.50204,75.92715,139.60472,126.17831,194.4565
			c38.0043,41.47873,71.57756,86.71994,98.42256,135.74991c38.37131,70.08618,105.81689,122.9577,186.61014,143.55194
			c16.43317,4.18481,28.48962,17.78223,30.48776,34.16522l2.77283,22.7724h3.33014
			c9.85449-9.78229,23.59641-15.84167,38.80627-15.84167c15.2099,0,28.95184,6.05939,38.80634,15.84167h1.97089l3.04468-22.90448
			c2.16125-16.23773,14.2041-29.66351,30.52856-33.7691C679.71045,614.25,745.78308,564.01868,784.9021,497.07443
			c26.81775-45.90128,59.15405-88.56818,95.96234-127.38022c53.51324-56.40952,115.94318-133.94136,139.19983-208.41037
			C1070.3562,0.22687,934.17389-5.95138,895.01416,16.06853z M685.82703,68.3328c0-4.80525,4.00977-8.69967,8.95746-8.69967
			h73.15424c4.94763,0,8.9574,3.89442,8.9574,8.69967v15.60405c0,4.80533-4.00977,8.69975-8.9574,8.69975h-73.15424
			c-4.94769,0-8.95746-3.89442-8.95746-8.69975V68.3328z M546.73596,68.3328c0-4.80525,3.99615-8.69967,8.94379-8.69967h73.16797
			c4.94757,0,8.95734,3.89442,8.95734,8.69967v15.60405c0,4.80533-4.00977,8.69975-8.95734,8.69975h-73.16797
			c-4.94763,0-8.94379-3.89442-8.94379-8.69975V68.3328z M407.63135,68.3328c0-4.80525,4.00977-8.69967,8.95734-8.69967h73.16794
			c4.94766,0,8.94382,3.89442,8.94382,8.69967v15.60405c0,4.80533-3.99615,8.69975-8.94382,8.69975h-73.16794
			c-4.94757,0-8.95734-3.89442-8.95734-8.69975V68.3328z M268.54025,68.3328c0-4.80525,4.0098-8.69967,8.95743-8.69967h73.15427
			c4.94763,0,8.95743,3.89442,8.95743,8.69967v15.60405c0,4.80533-4.0098,8.69975-8.95743,8.69975h-73.15427
			c-4.94763,0-8.95743-3.89442-8.95743-8.69975V68.3328z M618.68054,489.16681l-6.03503-101.98077
			c-1.76703-32.39624-3.901-71.32715-3.54761-100.27777h-1.06018c-8.1554,27.22125-18.09149,56.17188-30.1615,88.2117
			l-42.20441,112.67383h-23.4198l-38.67038-110.6012c-11.34964-32.73944-20.93225-62.71985-27.6741-90.28433h-0.70685
			c-0.70676,28.95062-2.48734,67.88153-4.60776,102.68045l-6.38846,99.57809h-29.44119l16.66431-232.22574h39.37723
			l40.80435,112.31747c9.93613,28.60739,18.09158,54.09927,24.1265,78.21823h1.06024
			c6.03503-23.43246,14.54388-48.92435,25.18677-78.21823l42.57135-112.31747h39.37726l14.89728,232.22574H618.68054z
			 M782.89038,132.46518H263.9053c-2.47385,0-4.71661-0.97688-6.33411-2.54785c-1.61751-1.57097-2.62334-3.74924-2.62334-6.13869
			c0-4.80524,4.00978-8.69967,8.95744-8.69967h518.98511c2.47382,0,4.71655,0.97689,6.33411,2.54786
			c1.61749,1.57097,2.62329,3.74915,2.62329,6.15181C791.84778,128.57076,787.83801,132.46518,782.89038,132.46518z"/>
	</g>
</g>
</svg>
