<svg version="1.1" baseProfile="tiny" xmlns="http://www.w3.org/2000/svg" xmlns:xlink="http://www.w3.org/1999/xlink" x="0px"
	 y="0px" width="1080px" height="1080px" viewBox="0 0 1080 1080" overflow="visible" xml:space="preserve">
<g>
	<path fill="#00FFFF" d="M540.00055,1080h-0.0011C241.76599,1080,0,838.23401,0,540.00055v-0.0011
		C0,241.76599,241.76599,0,539.99945,0h0.0011C838.23401,0,1080,241.76599,1080,539.99945v0.0011
		C1080,838.23401,838.23401,1080,540.00055,1080z"/>
</g>
<g>
	<g>
		<g>
			<path fill="#FFFFFF" d="M737.04968,826.5127H604.25397c-12.96985,0-23.93256-9.35596-25.58807-21.85278l-7.1712-53.96124
				h-5.14679c-5.73865,4.18219-12.86694,6.66498-20.58716,6.66498c-7.72015,0-14.84845-2.48279-20.5871-6.66498h-6.00458
				l-6.53644,53.6947c-1.53543,12.6134-12.54959,22.11932-25.63101,22.11932H354.47186
				c-7.10257,0-13.53607,2.79932-18.19391,7.32312c-4.65784,4.52386-7.54001,10.77228-7.54001,17.67053
				c0,13.80481,11.5202,24.99365,25.73392,24.99365h382.57782c14.21368,0,25.73389-11.18884,25.73389-24.99365
				S751.26337,826.5127,737.04968,826.5127z M718.60699,862.33691H372.91452c-2.95941,0-5.64432-1.16638-7.58295-3.04926
				c-1.93857-1.88281-3.13953-4.49048-3.13953-7.36475c0-5.74854,4.80365-10.414,10.72247-10.414h345.69247
				c2.95941,0,5.64435,1.16632,7.58295,3.04919s3.13953,4.49054,3.13953,7.36481
				C729.32947,857.67145,724.52582,862.33691,718.60699,862.33691z"/>
			<ellipse fill="#FFFFFF" cx="546.61859" cy="698.21198" rx="34.31191" ry="33.32486"/>
			<path fill="#FFFFFF" d="M778.13818,216.66776c-32.59631,18.32867-26.93488,42.30588-24.8761,48.32104
				c1.71558,4.99872,16.29816,32.49173,41.17426,21.66116c0,0-35.16968-22.49429-5.14679-39.15672
				c31.68707-17.58717,70.33942,23.32741,24.01837,82.47905c-28.01575,35.77423-58.54474,58.13519-78.29126,70.22379
				c-0.97791,0.59988-2.25598-0.09164-2.25598-1.21637V239.42863c0-9.34764-7.80597-16.92903-17.43048-16.92903H376.19131
				c-9.62451,0-17.43045,7.58139-17.43045,16.92903v156.09364c0,1.14136-1.30386,1.82452-2.28171,1.19971
				c-19.71225-12.58017-47.97668-34.27466-74.06229-67.58282c-46.32108-59.15164-7.66873-100.06622,24.01834-82.47903
				c30.02292,16.66241-5.14679,39.15671-5.14679,39.15671c24.87613,10.8306,39.45868-16.66241,41.17429-21.66116
				c2.06726-6.01517,7.72018-29.99237-24.87613-48.32104c-24.71317-13.89645-110.65591-9.99745-78.9174,91.64337
				c13.50174,43.23068,47.91658,88.1026,79.62938,122.71878c23.98401,26.17667,45.1716,54.72775,62.11313,85.66992
				c24.21561,44.23041,66.77957,77.59686,117.76706,90.59363c10.37076,2.64099,17.9794,11.22211,19.24039,21.56116l1.74994,14.37134
				h2.10156c6.21906-6.1734,14.89136-9.99744,24.49011-9.99744s18.27112,3.82404,24.49011,9.99744h1.24384l1.92145-14.45465
				c1.36395-10.24738,8.96399-18.72021,19.26617-21.31122c49.58069-12.4552,91.27826-44.15546,115.9657-86.40308
				c16.92432-28.96762,37.3313-55.89413,60.56049-80.38788c33.77148-35.59924,73.1701-84.5285,87.84711-131.52487
				C888.79413,206.67029,802.85132,202.77129,778.13818,216.66776z M646.12311,249.651c0-3.03252,2.53052-5.49023,5.65289-5.49023
				h46.16663c3.12244,0,5.65289,2.45772,5.65289,5.49023v9.8475c0,3.03256-2.53046,5.4903-5.65289,5.4903H651.776
				c-3.12238,0-5.65289-2.45773-5.65289-5.4903V249.651z M558.34467,249.651c0-3.03252,2.52191-5.49023,5.64429-5.49023h46.17529
				c3.12231,0,5.65283,2.45772,5.65283,5.49023v9.8475c0,3.03256-2.53052,5.4903-5.65283,5.4903h-46.17529
				c-3.12238,0-5.64429-2.45773-5.64429-5.4903V249.651z M470.55765,249.651c0-3.03252,2.53052-5.49023,5.65286-5.49023h46.17529
				c3.12238,0,5.64429,2.45772,5.64429,5.49023v9.8475c0,3.03256-2.52191,5.4903-5.64429,5.4903h-46.17529
				c-3.12234,0-5.65286-2.45773-5.65286-5.4903V249.651z M382.77921,249.651c0-3.03252,2.53052-5.49023,5.65289-5.49023h46.16663
				c3.12241,0,5.65292,2.45772,5.65292,5.49023v9.8475c0,3.03256-2.53052,5.4903-5.65292,5.4903H388.4321
				c-3.12238,0-5.65289-2.45773-5.65289-5.4903V249.651z M603.74786,515.23352l-3.80859-64.35864
				c-1.11517-20.44485-2.46191-45.01358-2.23889-63.28394h-0.66901c-5.14679,17.17896-11.4173,35.44931-19.03455,55.66919
				L551.36218,514.367h-14.77985l-24.40436-69.79886c-7.1626-20.66141-13.21005-39.58163-17.46475-56.9772h-0.44608
				c-0.44601,18.27036-1.56973,42.83908-2.9079,64.8002l-4.03168,62.84238h-18.57993l10.51663-146.55444h24.8504l25.75104,70.88199
				c6.27057,18.05374,11.41736,34.1413,15.22595,49.36246h0.66907c3.80865-14.7879,9.17847-30.87549,15.89502-49.36246
				l26.86621-70.88199h24.8504l9.40149,146.55444H603.74786z M707.37842,290.12405H379.85413
				c-1.56119,0-2.97659-0.61649-3.99738-1.60791c-1.02075-0.99142-1.65552-2.36609-1.65552-3.87402
				c0-3.03253,2.53052-5.49026,5.65289-5.49026h327.52429c1.56122,0,2.97656,0.61652,3.99738,1.60794
				c1.02075,0.99139,1.65552,2.36603,1.65552,3.88232C713.03131,287.66635,710.50079,290.12405,707.37842,290.12405z"/>
		</g>
		<g>
			<path fill="none" stroke="#000000" stroke-width="5" stroke-miterlimit="10" d="M723.32489,819.01459H590.52924
				c-12.96991,0-23.93256-9.35596-25.58813-21.85278l-7.17114-53.96124h-5.14679c-5.73871,4.18225-12.867,6.66498-20.58716,6.66498
				c-7.72021,0-14.84851-2.48273-20.58716-6.66498h-6.00458l-6.53641,53.6947c-1.53546,12.6134-12.54959,22.11932-25.63101,22.11932
				H340.7471c-7.10257,0-13.53607,2.79932-18.19391,7.32312c-4.65784,4.52386-7.54001,10.77228-7.54001,17.67053
				c0,13.80487,11.5202,24.99365,25.73392,24.99365h382.57779c14.21375,0,25.73395-11.18878,25.73395-24.99365
				C749.05884,830.20343,737.53864,819.01459,723.32489,819.01459z M704.88226,854.83887h-345.6925
				c-2.95941,0-5.64432-1.16644-7.58295-3.04926c-1.9386-1.88287-3.13953-4.49054-3.13953-7.36481
				c0-5.74854,4.80365-10.414,10.72247-10.414h345.6925c2.95941,0,5.64429,1.16632,7.58295,3.04919
				c1.9386,1.88287,3.13953,4.49054,3.13953,7.36481C715.60474,850.17334,710.80109,854.83887,704.88226,854.83887z"/>
			
				<ellipse fill="none" stroke="#000000" stroke-width="5" stroke-miterlimit="10" cx="532.8938" cy="690.71393" rx="34.31191" ry="33.32486"/>
			<path fill="none" stroke="#000000" stroke-width="5" stroke-miterlimit="10" d="M764.41345,209.16966
				c-32.59631,18.32867-26.93488,42.30588-24.87616,48.32103c1.71558,4.99875,16.29816,32.49176,41.17432,21.66116
				c0,0-35.16974-22.49426-5.14679-39.15671c31.68701-17.58717,70.33942,23.32739,24.01831,82.47903
				c-28.01569,35.77423-58.54468,58.13519-78.2912,70.22379c-0.97791,0.59988-2.25604-0.09161-2.25604-1.21637V231.93054
				c0-9.34766-7.80591-16.92903-17.43042-16.92903H362.46655c-9.62451,0-17.43045,7.58138-17.43045,16.92903v156.09363
				c0,1.14139-1.30386,1.82455-2.28171,1.19971c-19.71225-12.58017-47.97668-34.27463-74.06229-67.58282
				c-46.32109-59.15161-7.66873-100.06621,24.01834-82.47902c30.02292,16.66243-5.14679,39.15672-5.14679,39.15672
				c24.87613,10.83057,39.45868-16.66245,41.17429-21.66116c2.06726-6.01517,7.72018-29.99239-24.87613-48.32106
				c-24.71317-13.89645-110.65591-9.99745-78.9174,91.64336c13.50174,43.23071,47.91658,88.1026,79.62938,122.71881
				c23.98401,26.17667,45.1716,54.72775,62.11313,85.66989c24.21561,44.23041,66.77957,77.59692,117.76706,90.59363
				c10.37076,2.64099,17.97943,11.22211,19.24042,21.56122l1.74988,14.37134h2.10162
				c6.21899-6.17346,14.89136-9.9975,24.49011-9.9975s18.27106,3.82404,24.49011,9.9975h1.24384l1.92145-14.45471
				c1.36389-10.24738,8.96399-18.72021,19.26611-21.31122c49.58075-12.45514,91.27826-44.15546,115.9657-86.40302
				c16.92432-28.96768,37.33136-55.89417,60.56049-80.38791c33.77148-35.59927,73.17017-84.52853,87.84711-131.5249
				C875.06934,199.1722,789.12659,195.27319,764.41345,209.16966z M632.39832,242.15291c0-3.03252,2.53052-5.49023,5.65295-5.49023
				h46.16663c3.12238,0,5.65289,2.45772,5.65289,5.49023v9.8475c0,3.03258-2.53052,5.49028-5.65289,5.49028h-46.16663
				c-3.12244,0-5.65295-2.4577-5.65295-5.49028V242.15291z M544.61987,242.15291c0-3.03252,2.52191-5.49023,5.64435-5.49023
				h46.17523c3.12238,0,5.65289,2.45772,5.65289,5.49023v9.8475c0,3.03258-2.53052,5.49028-5.65289,5.49028h-46.17523
				c-3.12244,0-5.64435-2.4577-5.64435-5.49028V242.15291z M456.83289,242.15291c0-3.03252,2.53052-5.49023,5.65286-5.49023
				h46.17526c3.12241,0,5.64435,2.45772,5.64435,5.49023v9.8475c0,3.03258-2.52194,5.49028-5.64435,5.49028h-46.17526
				c-3.12234,0-5.65286-2.4577-5.65286-5.49028V242.15291z M369.05444,242.15291c0-3.03252,2.53052-5.49023,5.65289-5.49023
				h46.16663c3.12241,0,5.65292,2.45772,5.65292,5.49023v9.8475c0,3.03258-2.53052,5.49028-5.65292,5.49028h-46.16663
				c-3.12238,0-5.65289-2.4577-5.65289-5.49028V242.15291z M590.02313,507.73541l-3.80865-64.35864
				c-1.11511-20.44482-2.46185-45.01358-2.23883-63.28394h-0.66907c-5.14679,17.17899-11.4173,35.44931-19.03455,55.66919
				l-26.63458,71.1069h-14.77991l-24.40433-69.79889c-7.1626-20.66141-13.21008-39.5816-17.46475-56.9772h-0.44608
				c-0.44601,18.27036-1.56973,42.83911-2.9079,64.80023l-4.03168,62.84235h-18.57993l10.51663-146.55444h24.8504l25.75107,70.88199
				c6.27057,18.05374,11.41736,34.14133,15.22589,49.36246h0.66913c3.80859-14.7879,9.17847-30.87549,15.89502-49.36246
				l26.86615-70.88199h24.85046l9.40149,146.55444H590.02313z M693.65363,282.62598H366.12936
				c-1.56119,0-2.97659-0.61652-3.99738-1.60794c-1.02078-0.99139-1.65552-2.36609-1.65552-3.87402
				c0-3.03253,2.53049-5.49023,5.65289-5.49023h327.52426c1.56122,0,2.97662,0.61649,3.99738,1.60791
				c1.02081,0.99142,1.65558,2.36603,1.65558,3.88232C699.30658,280.16824,696.77606,282.62598,693.65363,282.62598z"/>
		</g>
	</g>
</g>
</svg>
